<?xml version="1.0" encoding="utf-8"?>
<!-- Generator: Adobe Illustrator 25.4.1, SVG Export Plug-In . SVG Version: 6.00 Build 0)  -->
<svg version="1.1" id="Layer_1" xmlns="http://www.w3.org/2000/svg" xmlns:xlink="http://www.w3.org/1999/xlink" x="0px" y="0px"
	 viewBox="0 0 300 100" style="enable-background:new 0 0 300 100;" xml:space="preserve">
<style type="text/css">
	.st0{fill:#8F449A;stroke:#000025;stroke-miterlimit:10;}
	.st1{fill:#000029;}
	.st2{fill:#00B9B0;}
	.st3{font-family:'Algerian';}
	.st4{font-size:37.4866px;}
</style>
<g>
	<rect x="11.5" y="2" class="st0" width="65.6" height="92.7"/>
	<g>
		<g>
			<g>
				<path class="st1" d="M26.1,67.5l-11.9-3.6C16,58,18.5,52.7,21,47.8c2.5-5,5-9.6,6.9-14.3c1-2.3,1.7-4.6,2.3-6.9
					c0.2-1.1,0.5-2.3,0.7-3.4l0.1-0.9c0-0.3,0.1-0.5,0.1-0.9c0.1-1.4,0.4-2.7,1-3.9c0.6-1.2,1.4-2.3,2.3-3.3c0.5-0.5,1.1-1,1.4-1.2
					c0.4-0.3,0.8-0.6,1.2-0.9c1.6-1.1,3.3-2,5.1-2.7c3.6-1.3,7.5-1.7,11.3-1c3.8,0.7,7.3,2.4,10.1,4.7c1.4,1.1,2.7,2.5,3.9,3.9
					c1.1,1.5,2.1,3,2.9,4.7c0.8,1.8,1.5,3.9,1.6,6.1c0.2,2.2-0.1,4.2-0.6,6.1c-1,3.7-2.7,6.6-4.4,9.2c-1.8,2.7-4,5.3-7.1,7.6
					c-1.6,1.1-3.4,2.1-5.4,2.7c-2,0.6-4.1,0.9-5.9,0.8c-1.9,0-3.6-0.3-5.2-0.6c-1.6-0.3-3.1-0.7-4.8-1.3c-1.7-0.6-3.5-1.5-5.2-2.7
					c-1.7-1.3-3.3-3-4.4-5c-1-1.9-1.8-4.2-1.7-6.7l0-0.5l0-0.1l0-0.1l0,0l0,0l0,0l0,0c-2.7-0.2,23.3,1.3,12.3,0.7l0,0.1l0,0.4
					c0,0.3,0,0.5,0,0.8c0,0.5,0,1.1,0,1.6c-0.9,6.9,0.5,14.4,5.9,19.6c2.6,2.5,6.1,4.4,10,4.7c1.9,0.1,4-0.1,5.7-1.2
					c1.8-1,3.3-2.7,3.9-5c-0.1,2.4-1.3,4.7-3.1,6.4c-1.9,1.7-4.3,2.6-6.7,2.9c-4.9,0.7-9.9-0.7-14.1-3.4c-2.1-1.3-4-3-5.7-4.9
					c-1.7-1.9-3.1-4-4.2-6.3c-2.3-4.5-3.6-9.4-4-14.4c0-0.7,0-1.4,0.1-2.1l0-0.1c5.5,0.3-12.4-0.7,12.4,0.7l0,0l0,0l0,0c0,0,0,0,0,0
					c0,0,0,0.1,0,0.1c0,0.2,0.1,0.4,0.4,0.8c0.5,0.7,1.8,1.6,4,2.1c1.1,0.3,2.3,0.6,3.3,0.7c1,0.1,1.9,0.1,2.7,0
					c0.7-0.1,1.3-0.3,2-0.7c0.7-0.4,1.4-0.9,2.1-1.6c0.7-0.7,1.4-1.5,2.1-2.5c0.7-0.9,1.4-2,1.9-3c1.1-2,1.7-3.9,1.6-5.1
					c0-0.3,0-0.6-0.1-0.9c-0.1-0.3-0.2-0.6-0.3-1c-0.3-0.7-0.8-1.6-1.4-2.3c-1.2-1.5-2.7-2.7-4.4-3.4c-1.7-0.7-3.3-0.9-5.1-0.7
					c-1.7,0.3-3.4,1-4.6,2.1c-0.1,0.1,0,0,0,0c0,0,0,0,0,0c0,0.2,0,0.4-0.1,0.6l-0.2,1.2c-0.1,0.8-0.2,1.7-0.4,2.5
					c-0.6,3.3-1.6,6.4-2.7,9.3c-2.3,5.9-5.1,11.2-7.7,16.3c-1.3,2.5-2.5,5-3.6,7.5C27.8,62.6,26.9,65,26.1,67.5z"/>
			</g>
		</g>
	</g>
	<g>
		<g>
			<g>
				<path class="st2" d="M61.6,61.3l-2.9,1.2c-0.6-1.4-2-2.6-3.6-3.3c-1.6-0.7-3.4-0.9-5.2-0.6c-3.6,0.6-6.9,2.9-8.6,6.1
					c-1.8,3.3-2.2,7.3-1.4,11c0.4,1.9,1,3.7,2,5.3c0.2,0.4,0.5,0.8,0.7,1.2c0.1,0.2,0.3,0.4,0.4,0.6c0.1,0.2,0.3,0.4,0.4,0.5
					c0.3,0.4,0.7,0.8,1.1,1.1c0.6,0.7,1.3,1.2,2,1.6c0.8,0.4,1.7,0.7,2.6,0.7c0.9,0,1.9-0.2,2.7-0.8c0.4-0.3,0.7-0.7,0.9-1.1
					c0.2-0.5,0.3-1,0.1-1.6c0.4,0.5,0.4,1.2,0.3,1.7c-0.1,0.6-0.4,1.1-0.8,1.6c-0.8,0.9-2,1.5-3.2,1.7c-1.2,0.3-2.5,0.2-3.7-0.1
					c-1.2-0.3-2.3-0.9-3.3-1.7c-0.3-0.2-0.5-0.5-0.7-0.7L41,85.4l-0.2-0.2l-0.3-0.3c-0.7-0.9-1.3-1.8-1.8-2.8c-1-2-1.7-4.1-2.1-6.2
					c-0.7-4.3-0.2-8.9,2-12.9c2.3-4,6.4-6.7,10.9-7.4c1.1-0.2,2.3-0.2,3.5,0c1.1,0.2,2.3,0.4,3.4,0.9C58.6,57.3,60.6,59,61.6,61.3z"
					/>
			</g>
		</g>
	</g>
</g>
<text transform="matrix(0.7901 0 0 1 90.5088 36.3204)"><tspan x="0" y="0" class="st3 st4">React Coffie </tspan><tspan x="84.6" y="45" class="st3 st4">Shop</tspan></text>
</svg>
